# xmcd
#
# Track frame offsets: 
#        150
#        29233
#        42050
#        54274
#        84959
#        113183
#        124622
#        134747
#        145644
#        157748
#        169855
#        180446
#        192012
#        203274
#        215055
#        227394
#        241590
#        254068
#        266824
#        280543
#
# Disc length: 3902 seconds
#
# Revision: 2
# Processed by: cddbd v1.5.2PL0 Copyright (c) Steve Scherf et al.
# Submitted via: ExactAudioCopyFreeDBPlugin 1.0
#
DISCID=0b0f3c14
DTITLE=Ray Charles - 45 Great Performances
DYEAR=2003
DGENRE=Rhythm and Blues
TTITLE0=What'd I Say
TTITLE1=Baby Won't You Please Come Home
TTITLE2=C.C. Rider
TTITLE3=Georgia on My Mind
TTITLE4=I Got a Woman
TTITLE5=How Long
TTITLE6=I'm Moving On
TTITLE7=Sentimental Blues
TTITLE8=Honey Honey
TTITLE9=Going Down Slow
TTITLE10=Hey Now
TTITLE11=Tell Me Baby What Have I Done
TTITLE12=She's on the Ball
TTITLE13=Can't See You Darling
TTITLE14=I Will Not Let You Go
TTITLE15=Blues is My Middle Name
TTITLE16=I'm Glad for Your Sake
TTITLE17=Snow is Falling
TTITLE18=I'm Going Down to the River
TTITLE19=I've Had My Fun
EXTD=
EXTT0=
EXTT1=
EXTT2=
EXTT3=
EXTT4=
EXTT5=
EXTT6=
EXTT7=
EXTT8=
EXTT9=
EXTT10=
EXTT11=
EXTT12=
EXTT13=
EXTT14=
EXTT15=
EXTT16=
EXTT17=
EXTT18=
EXTT19=
PLAYORDER=
